<svg xmlns="http://www.w3.org/2000/svg" width="600" height="600" viewBox="0 0 600 600" version="1.1"><path d="M 98.151 210.642 L 37.043 290.500 37.022 300.250 L 37 310 55.995 310 L 74.989 310 130.636 235.750 L 186.282 161.500 187.100 160.447 L 187.919 159.393 173.589 145.089 L 159.259 130.784 98.151 210.642 M 435.587 154.913 L 421.695 168.832 425.097 172.886 L 428.500 176.940 495 252.409 L 561.500 327.878 562.240 327.939 L 562.980 328 567.490 319.020 L 572 310.040 571.953 295.270 L 571.907 280.500 511.634 211.060 L 451.361 141.620 450.420 141.307 L 449.480 140.993 435.587 154.913 M 78.619 328.053 L 56.737 336.930 56.326 337.341 L 55.915 337.752 112.113 398.626 L 168.311 459.500 178.155 459.785 L 188 460.070 188 440.954 L 188 421.838 145.934 370.419 L 103.868 319 102.184 319.088 L 100.500 319.177 78.619 328.053 M 468 375.032 L 421.500 431.017 421.500 445.258 L 421.500 459.500 435.711 459.777 L 449.922 460.054 501.461 403.849 L 553 347.644 553 346.945 L 553 346.246 535.329 332.985 L 517.659 319.724 516.079 319.386 L 514.500 319.048 468 375.032" stroke="none" fill="#1b4cc4" fill-rule="evenodd"/><path d="M 355.750 46.613 L 337 56.010 337 56.423 L 337 56.835 281 299.500 L 225 542.165 225.043 543.332 L 225.087 544.500 243.633 558.327 L 262.180 572.153 262.621 571.712 L 263.062 571.272 328.591 318.511 L 394.120 65.751 384.884 51.826 L 375.649 37.901 375.074 37.559 L 374.500 37.216 355.750 46.613" stroke="none" fill="#2cacfc" fill-rule="evenodd"/></svg>