<svg xmlns="http://www.w3.org/2000/svg" width="600" height="600" viewBox="0 0 600 600" version="1.1"><path d="M 84.143 69.785 L 75 83.569 75 112.554 L 75 141.540 84.269 150.770 L 93.538 160 290.279 160 L 487.020 160 506.010 150.495 L 525 140.990 525 103.005 L 525 65.020 516.020 60.510 L 507.040 56 300.163 56 L 93.286 56 84.143 69.785 M 88.250 257.662 L 75 262.167 75 295.353 L 75 328.540 84.269 337.770 L 93.538 347 300.126 347 L 506.714 347 516.067 332.899 L 525.419 318.799 521.130 292.649 C 518.771 278.267, 516.597 265.465, 516.299 264.199 C 515.902 262.510, 513.404 260.716, 506.899 257.449 L 498.040 253 299.770 253.079 L 101.500 253.158 88.250 257.662 M 79.726 449.513 L 75 459.026 75 487.729 L 75 516.431 84.143 530.215 L 93.286 544 295.148 544 L 497.010 544 510.980 534.750 L 524.949 525.500 524.974 491.730 L 525 457.960 520.490 448.980 L 515.980 440 300.216 440 L 84.451 440 79.726 449.513" stroke="none" fill="#34ccf4" fill-rule="evenodd"/><path d="M 116.813 196.686 L 112.168 215.371 117.093 225.186 L 122.018 235 290.527 235 L 459.036 235 469.018 229.991 L 479 224.982 479 211.473 L 479 197.964 473.991 187.982 L 468.982 178 295.219 178 L 121.457 178 116.813 196.686 M 121.750 370.061 L 112 375.019 112 393.797 L 112 412.575 116.784 417.288 L 121.569 422 300.284 422 L 479 422 479 403.661 L 479 385.323 474.031 375.161 L 469.062 365 300.281 365.051 L 131.500 365.102 121.750 370.061" stroke="none" fill="#2484ec" fill-rule="evenodd"/></svg>